<?xml version="1.0" standalone="no"?><!DOCTYPE svg PUBLIC "-//W3C//DTD SVG 1.1//EN" "http://www.w3.org/Graphics/SVG/1.1/DTD/svg11.dtd"><svg height="864" legacy-metrics="false" node-id="1" sillyvg="true" template-height="864" template-width="1344" version="1.1" viewBox="0 0 1344 864" width="1344" xmlns="http://www.w3.org/2000/svg" xmlns:xlink="http://www.w3.org/1999/xlink"><defs node-id="112"><linearGradient gradientUnits="userSpaceOnUse" id="linear-gradient" node-id="5" x1="330.57" x2="248.13" y1="862.43" y2="647.68"><stop offset="0" stop-color="#90bfa5"></stop><stop offset="1" stop-color="#c4dfcc"></stop></linearGradient><linearGradient gradientUnits="userSpaceOnUse" id="linear-gradient-2" node-id="8" x1="162" x2="311.96" y1="807.26" y2="807.26"><stop offset="0" stop-color="#90bfa5"></stop><stop offset="1" stop-color="#c4dfcc"></stop></linearGradient><linearGradient gradientUnits="userSpaceOnUse" id="linear-gradient-3" node-id="9" x1="341.04" x2="502.58" y1="791.09" y2="791.09"><stop offset="0" stop-color="#90bfa5"></stop><stop offset="1" stop-color="#c4dfcc"></stop></linearGradient><linearGradient gradientUnits="userSpaceOnUse" id="linear-gradient-4" node-id="10" x1="1163.8" x2="1105.75" y1="862.88" y2="670.81"><stop offset="0" stop-color="#90bfa5"></stop><stop offset="1" stop-color="#c4dfcc"></stop></linearGradient><linearGradient gradientUnits="userSpaceOnUse" id="linear-gradient-5" node-id="11" x1="999.57" x2="1128.27" y1="814.46" y2="814.46"><stop offset="0" stop-color="#90bfa5"></stop><stop offset="1" stop-color="#c4dfcc"></stop></linearGradient><linearGradient gradientUnits="userSpaceOnUse" id="linear-gradient-6" node-id="12" x1="1228.15" x2="1211.08" y1="849.5" y2="746.21"><stop offset="0" stop-color="#90bfa5"></stop><stop offset="1" stop-color="#c4dfcc"></stop></linearGradient><linearGradient gradientUnits="userSpaceOnUse" id="linear-gradient-7" node-id="13" x1="360.56" x2="1277" y1="792.3" y2="792.3"><stop offset="0" stop-color="#f7a06a"></stop><stop offset="1" stop-color="#ffd18f"></stop></linearGradient><linearGradient gradientUnits="userSpaceOnUse" id="linear-gradient-8" node-id="16" x1="110" x2="824" y1="825.59" y2="825.59"><stop offset="0" stop-color="#f7a06a"></stop><stop offset="1" stop-color="#ffd18f"></stop></linearGradient><linearGradient gradientUnits="userSpaceOnUse" id="linear-gradient-9" node-id="17" x1="504.11" x2="591" y1="734.75" y2="734.75"><stop offset="0" stop-color="#002452"></stop><stop offset="1" stop-color="#001328"></stop></linearGradient><linearGradient gradientTransform="matrix(0.9944118881299168 0.1055698666566081 -0.1055698666566081 0.9944118881299168 83.59 -53.25)" gradientUnits="userSpaceOnUse" id="linear-gradient-10" node-id="20" x1="522.69" x2="567.13" y1="763.09" y2="763.09"><stop offset="0" stop-color="#3baca0"></stop><stop offset="1" stop-color="#58c6b6"></stop></linearGradient><linearGradient gradientUnits="userSpaceOnUse" id="linear-gradient-11" node-id="23" x1="530.54" x2="212.55" y1="680.5" y2="676"><stop offset="0" stop-color="#002452"></stop><stop offset="1" stop-color="#001328"></stop></linearGradient><linearGradient gradientUnits="userSpaceOnUse" id="linear-gradient-12" node-id="24" x1="1031.61" x2="698.62" y1="673.46" y2="679.46"><stop offset="0" stop-color="#002452"></stop><stop offset="1" stop-color="#001328"></stop></linearGradient><linearGradient gradientUnits="userSpaceOnUse" id="linear-gradient-13" node-id="25" x1="758.19" x2="919.83" y1="91.09" y2="91.09"><stop offset="0" stop-color="#ed6263"></stop><stop offset="1" stop-color="#ffa9a9"></stop></linearGradient><linearGradient gradientUnits="userSpaceOnUse" id="linear-gradient-14" node-id="28" x1="798.64" x2="922.25" y1="53.74" y2="53.74"><stop offset="0" stop-color="#002452"></stop><stop offset="1" stop-color="#001328"></stop></linearGradient><linearGradient gradientUnits="userSpaceOnUse" id="linear-gradient-15" node-id="29" x1="740.95" x2="855.95" y1="18.73" y2="33.73"><stop offset="0" stop-color="#3baca0"></stop><stop offset="1" stop-color="#58c6b6"></stop></linearGradient><linearGradient gradientUnits="userSpaceOnUse" id="linear-gradient-16" node-id="30" x1="874.53" x2="968.74" y1="38.44" y2="38.44"><stop offset="0" stop-color="#3baca0"></stop><stop offset="1" stop-color="#58c6b6"></stop></linearGradient><linearGradient gradientUnits="userSpaceOnUse" id="linear-gradient-17" node-id="31" x1="873.49" x2="960.63" y1="29.79" y2="29.79"><stop offset="0" stop-color="#3baca0"></stop><stop offset="1" stop-color="#58c6b6"></stop></linearGradient><linearGradient gradientUnits="userSpaceOnUse" id="linear-gradient-18" node-id="32" x1="839.01" x2="849.83" y1="99.37" y2="99.37"><stop offset="0" stop-color="#002452"></stop><stop offset="1" stop-color="#001328"></stop></linearGradient><linearGradient gradientUnits="userSpaceOnUse" id="linear-gradient-19" node-id="33" x1="573.05" x2="564.05" y1="464.65" y2="274.16"><stop offset="0" stop-color="#002452"></stop><stop offset="1" stop-color="#001328"></stop></linearGradient><linearGradient gradientUnits="userSpaceOnUse" id="linear-gradient-20" node-id="34" x1="722.04" x2="713.14" y1="192.69" y2="244.14"><stop offset="0" stop-color="#3baca0"></stop><stop offset="1" stop-color="#58c6b6"></stop></linearGradient><linearGradient gradientUnits="userSpaceOnUse" id="linear-gradient-21" node-id="35" x1="352.47" x2="940.5" y1="497.86" y2="497.86"><stop offset="0" stop-color="#404aa9"></stop><stop offset="1" stop-color="#7284d3"></stop></linearGradient><linearGradient gradientUnits="userSpaceOnUse" id="linear-gradient-22" node-id="38" x1="465.94" x2="571.06" y1="286.54" y2="286.54"><stop offset="0" stop-color="#3baca0"></stop><stop offset="1" stop-color="#58c6b6"></stop></linearGradient><linearGradient gradientTransform="matrix(0.1329483569618044 0.991122966327164 -0.991122966327164 0.1329483569618044 1136.29 55.25)" gradientUnits="userSpaceOnUse" id="linear-gradient-23" node-id="39" x1="578.46" x2="493.12" y1="676.37" y2="677.7"><stop offset="0" stop-color="#404aa9"></stop><stop offset="1" stop-color="#7284d3"></stop></linearGradient><linearGradient gradientUnits="userSpaceOnUse" id="linear-gradient-24" node-id="40" x1="747.29" x2="896.56" y1="169.79" y2="390.12"><stop offset="0" stop-color="#ed6263"></stop><stop offset="1" stop-color="#ffa9a9"></stop></linearGradient><linearGradient gradientUnits="userSpaceOnUse" id="linear-gradient-25" node-id="41" x1="697.59" x2="589.97" y1="331.66" y2="569.23"><stop offset="0" stop-color="#ed6263"></stop><stop offset="1" stop-color="#ffa9a9"></stop></linearGradient><linearGradient gradientTransform="matrix(0.1329483569618044 0.991122966327164 -0.991122966327164 0.1329483569618044 984.61 227.77)" gradientUnits="userSpaceOnUse" id="linear-gradient-26" node-id="42" x1="336.97" x2="387.29" y1="676.6" y2="676.6"><stop offset="0" stop-color="#002452"></stop><stop offset="1" stop-color="#001328"></stop></linearGradient><linearGradient gradientUnits="userSpaceOnUse" id="linear-gradient-27" node-id="43" x1="604.16" x2="773.16" y1="220.25" y2="53.25"><stop offset="0" stop-color="#3baca0"></stop><stop offset="1" stop-color="#58c6b6"></stop></linearGradient><linearGradient gradientTransform="matrix(0.1329483569618044 0.991122966327164 -0.991122966327164 0.1329483569618044 1407.97 -267.16)" gradientUnits="userSpaceOnUse" id="linear-gradient-28" node-id="44" x1="837.56" x2="875.78" y1="671.09" y2="671.09"><stop offset="0" stop-color="#002452"></stop><stop offset="1" stop-color="#001328"></stop></linearGradient><linearGradient gradientUnits="userSpaceOnUse" id="linear-gradient-29" node-id="45" x1="482.9" x2="700.19" y1="261.98" y2="261.98"><stop offset="0" stop-color="#404aa9"></stop><stop offset="1" stop-color="#7284d3"></stop></linearGradient><linearGradient gradientUnits="userSpaceOnUse" id="linear-gradient-30" node-id="46" x1="481" x2="570.89" y1="560.79" y2="560.79"><stop offset="0" stop-color="#002452"></stop><stop offset="1" stop-color="#001328"></stop></linearGradient><linearGradient gradientTransform="matrix(0.5835412113561176 0.8120835268918062 -0.8120835268918062 0.5835412113561176 695.93 -180.74)" gradientUnits="userSpaceOnUse" id="linear-gradient-31" node-id="47" x1="504.97" x2="543.37" y1="588.11" y2="588.11"><stop offset="0" stop-color="#3baca0"></stop><stop offset="1" stop-color="#58c6b6"></stop></linearGradient></defs><g node-id="433"><g node-id="434"><path d="M 1281.22 863.00 L 102.59 863.00 C 102.59 863.00 -10.67 858.08 0.82 720.19 C 0.82 720.19 63.20 273.69 491.64 198.19 C 491.64 198.19 637.74 171.93 732.95 303.25 C 732.95 303.25 826.52 418.16 975.90 377.12 C 975.90 377.12 1250.03 293.40 1338.68 682.45 C 1338.68 682.43 1369.87 815.40 1281.22 863.00 Z" fill="#e6f0f5" fill-rule="nonzero" group-id="1,2" node-id="304" stroke="none" target-height="666.94666" target-width="1343.9172" target-x="0.026982531" target-y="196.05336"></path></g><g node-id="435"><path d="M 363.00 803.61 L 363.00 803.61 C 362.82 805.86 362.53 808.17 362.12 810.53 C 362.12 810.53 358.53 845.22 348.02 862.42 L 296.82 862.42 L 251.00 805.00 C 251.00 805.00 241.23 791.69 239.45 776.41 L 239.45 776.41 C 238.96 772.52 239.11 768.57 239.89 764.73 C 239.89 764.73 242.40 745.60 223.23 728.62 C 206.56 713.86 191.90 677.31 239.89 641.14 C 251.83 632.14 287.36 615.69 299.47 652.43 C 305.56 670.90 305.67 673.54 302.39 713.17 C 301.52 723.69 310.44 743.90 329.65 748.07 C 346.09 751.61 365.45 772.28 363.00 803.61 Z" fill="url(#linear-gradient)" fill-rule="nonzero" group-id="1,3" node-id="308" stroke="none" target-height="232.79022" target-width="155.87807" target-x="207.31248" target-y="629.62976"></path><path d="M 319.27 864.47 C 269.61 799.64 251.76 666.94 251.59 665.61 L 254.59 665.22 C 254.77 666.54 272.51 798.45 321.68 862.65 Z" fill="#ffffff" fill-rule="nonzero" group-id="1,3" node-id="310" stroke="none" target-height="199.25" target-width="70.09" target-x="251.59" target-y="665.22"></path><path d="M 312.00 862.42 L 236.87 862.42 C 215.27 855.71 217.05 841.35 216.27 832.67 C 214.74 815.56 194.43 816.32 185.72 814.67 C 155.65 808.80 159.88 779.35 167.67 770.23 C 197.01 735.87 231.39 758.15 238.49 774.40 C 238.80 775.10 239.12 775.78 239.44 776.40 L 239.44 776.40 C 248.44 794.75 262.10 792.40 262.10 792.40 C 303.62 777.30 311.00 848.84 312.00 862.42 Z" fill="url(#linear-gradient-2)" fill-rule="nonzero" group-id="1,3" node-id="312" stroke="none" target-height="110.25366" target-width="150.00012" target-x="161.99988" target-y="752.1663"></path><path d="M 485.68 774.35 C 477.63 780.52 457.91 789.62 460.68 806.29 C 460.68 806.29 465.78 844.58 423.38 862.42 L 341.00 862.42 L 344.00 856.28 C 344.00 856.28 348.51 826.71 362.93 803.61 L 362.93 803.61 C 371.13 790.46 382.54 779.42 398.15 777.12 C 404.72 776.12 413.43 777.12 417.60 759.12 C 417.60 759.12 418.60 706.49 474.54 723.02 C 487.18 726.69 523.87 745.06 485.68 774.35 Z" fill="url(#linear-gradient-3)" fill-rule="nonzero" group-id="1,3" node-id="314" stroke="none" target-height="142.60504" target-width="161.56165" target-x="341" target-y="719.81494"></path><path d="M 291.61 863.24 C 260.73 815.84 196.82 784.34 196.18 784.03 L 197.49 781.33 C 198.14 781.65 262.80 813.51 294.13 861.60 Z" fill="#ffffff" fill-rule="nonzero" group-id="1,3" node-id="316" stroke="none" target-height="81.90997" target-width="97.95001" target-x="196.18" target-y="781.33"></path><path d="M 382.87 862.72 L 380.18 861.40 C 382.12 857.46 428.18 764.64 472.55 743.83 L 473.82 746.54 C 430.36 766.92 383.35 861.77 382.87 862.72 Z" fill="#ffffff" fill-rule="nonzero" group-id="1,3" node-id="318" stroke="none" target-height="118.88995" target-width="93.640015" target-x="380.18" target-y="743.83"></path></g><g node-id="436"><path d="M 1188.64 826.65 C 1187.97 828.47 1187.22 830.31 1186.39 832.17 C 1186.39 832.17 1180.31 848.17 1171.95 861.06 L 1122.76 861.06 L 1121.16 860.63 L 1089.90 810.70 C 1089.90 810.70 1082.99 803.07 1085.63 790.21 C 1085.63 790.21 1087.34 784.21 1095.63 767.52 C 1099.41 759.92 1101.89 752.29 1089.81 734.08 C 1088.86 732.64 1088.01 731.15 1087.25 729.60 C 1078.98 712.60 1079.34 683.21 1122.76 665.60 C 1134.59 660.80 1167.50 655.03 1169.42 688.00 C 1170.29 702.84 1170.00 706.16 1161.74 729.63 C 1160.74 732.38 1159.74 735.40 1158.51 738.75 C 1155.51 747.23 1158.40 765.87 1173.33 773.52 C 1186.14 780.05 1197.56 801.35 1188.64 826.65 Z" fill="url(#linear-gradient-4)" fill-rule="nonzero" group-id="1,4" node-id="322" stroke="none" target-height="199.17157" target-width="108.69116" target-x="1083.1212" target-y="661.8884"></path><path d="M 1139.00 861.37 C 1112.25 796.92 1126.69 689.37 1126.83 688.31 L 1129.83 688.72 C 1129.68 689.79 1115.36 796.52 1141.83 860.22 Z" fill="#ffffff" fill-rule="nonzero" group-id="1,4" node-id="324" stroke="none" target-height="173.06" target-width="18.99878" target-x="1122.8312" target-y="688.31"></path><path d="M 1128.27 861.42 L 1064.18 861.42 C 1045.74 855.69 1047.26 843.42 1046.59 836.03 C 1045.29 821.42 1027.95 822.03 1020.51 820.62 C 994.85 815.62 996.85 791.92 1005.10 782.68 C 1030.80 753.92 1059.50 772.37 1065.56 786.24 C 1065.83 786.84 1066.09 787.42 1066.37 787.97 L 1066.37 787.97 C 1074.08 803.63 1085.72 801.64 1085.72 801.64 C 1121.16 788.76 1127.41 849.83 1128.27 861.42 Z" fill="url(#linear-gradient-5)" fill-rule="nonzero" group-id="1,4" node-id="326" stroke="none" target-height="93.91089" target-width="128.69989" target-x="999.5701" target-y="767.5091"></path><path d="M 1276.57 786.24 C 1269.70 791.51 1252.86 799.24 1255.23 813.50 C 1255.23 813.50 1259.59 846.19 1223.40 861.42 L 1153.10 861.42 L 1155.66 856.18 C 1155.66 856.18 1159.51 830.94 1171.82 811.18 L 1171.82 811.18 C 1178.82 799.96 1188.56 790.52 1201.89 788.57 C 1207.49 787.75 1214.89 788.57 1218.49 773.16 C 1218.49 773.16 1219.37 728.23 1267.09 742.34 C 1277.85 745.56 1309.17 761.24 1276.57 786.24 Z" fill="url(#linear-gradient-6)" fill-rule="nonzero" group-id="1,4" node-id="328" stroke="none" target-height="121.81555" target-width="137.89221" target-x="1153.1" target-y="739.60443"></path><path d="M 1110.73 862.24 C 1084.40 821.83 1029.89 794.97 1029.34 794.70 L 1030.66 792.00 C 1031.21 792.27 1086.46 819.50 1113.24 860.60 Z" fill="#ffffff" fill-rule="nonzero" group-id="1,4" node-id="330" stroke="none" target-height="70.23999" target-width="83.900024" target-x="1029.34" target-y="792"></path><path d="M 1189.00 861.78 L 1186.31 860.45 C 1187.96 857.09 1227.31 777.79 1265.25 759.99 L 1266.53 762.70 C 1229.51 780.06 1189.41 861.00 1189.00 861.78 Z" fill="#ffffff" fill-rule="nonzero" group-id="1,4" node-id="332" stroke="none" target-height="101.79004" target-width="80.21997" target-x="1186.31" target-y="759.99"></path></g><g node-id="437"><path d="M 404.00 845.00 C 404.00 845.00 556.28 843.61 601.00 810.00 C 658.17 767.00 734.43 665.28 883.00 762.00 C 905.78 776.83 936.00 810.00 982.00 807.00 C 1028.00 804.00 1080.00 798.00 1120.00 826.00 C 1160.00 854.00 1161.00 847.00 1213.00 845.00 C 1265.00 843.00 1277.00 863.00 1277.00 863.00 L 360.56 863.00 Z" fill="url(#linear-gradient-7)" fill-rule="nonzero" group-id="1,5" node-id="336" stroke="none" target-height="141.43018" target-width="916.44" target-x="360.56" target-y="721.5698"></path><path d="M 110.00 863.00 L 824.00 863.00 C 824.00 863.00 716.00 859.00 652.00 833.00 C 652.00 833.00 462.50 741.50 328.00 820.00 C 328.00 820.00 268.50 848.50 227.50 842.50 C 227.50 842.50 148.50 838.50 110.00 863.00 Z" fill="url(#linear-gradient-8)" fill-rule="nonzero" group-id="1,5" node-id="338" stroke="none" target-height="74.810486" target-width="714" target-x="110" target-y="788.1895"></path></g><g node-id="438"><path d="M 1019.00 252.00 L 1245.31 252.00 C 1245.31 252.00 1235.40 214.46 1205.16 226.45 C 1205.16 226.45 1200.37 190.12 1168.08 181.04 C 1159.83 178.78 1151.14 178.64 1142.83 180.66 C 1128.83 183.96 1102.63 193.56 1085.75 220.71 C 1085.75 220.71 1064.37 202.98 1044.55 235.31 C 1044.55 235.31 1021.08 232.18 1019.00 253.56" fill="#e6f0f5" fill-rule="nonzero" group-id="1,6" node-id="342" stroke="none" target-height="74.31508" target-width="226.31006" target-x="1019" target-y="179.24492"></path><path d="M 89.00 150.00 L 315.31 150.00 C 315.31 150.00 305.40 112.46 275.16 124.45 C 275.16 124.45 270.37 88.12 238.08 79.04 C 229.83 76.78 221.14 76.64 212.83 78.66 C 198.83 81.96 172.63 91.56 155.75 118.71 C 155.75 118.71 134.37 100.98 114.55 133.31 C 114.55 133.31 91.08 130.18 89.00 151.56" fill="#e6f0f5" fill-rule="nonzero" group-id="1,6" node-id="344" stroke="none" target-height="74.31508" target-width="226.31" target-x="89" target-y="77.24492"></path></g><g node-id="439"><path d="M 504.11 714.51 L 504.11 761.91 L 591.00 752.03 L 562.37 732.29 L 561.38 707.60 L 504.11 714.51 Z" fill="url(#linear-gradient-9)" fill-rule="nonzero" group-id="1,7" node-id="348" stroke="none" target-height="54.309998" target-width="86.890015" target-x="504.11" target-y="707.6"></path><path d="M 527.85 759.16 L 560.79 755.52 L 562.36 755.57 L 563.75 755.98 L 565.01 756.75 L 566.03 757.80 L 566.73 759.07 L 567.12 760.59 L 567.12 760.59 L 567.07 762.17 L 566.66 763.55 L 565.90 764.81 L 564.84 765.83 L 563.57 766.53 L 562.05 766.92 L 529.11 770.56 L 527.53 770.51 L 526.14 770.11 L 524.89 769.34 L 523.86 768.28 L 523.16 767.01 L 522.77 765.49 L 522.77 765.49 L 522.82 763.92 L 523.23 762.53 L 524.00 761.28 L 525.05 760.25 L 526.32 759.55 L 527.85 759.16 Z" fill="url(#linear-gradient-10)" fill-rule="nonzero" group-id="1,7" node-id="350" stroke-linecap="butt" stroke-width="1" target-height="15.0373535" target-width="44.350525" target-x="522.7707" target-y="755.52374"></path><path d="M 531.61 426.41 L 527.10 458.87 L 506.11 719.85 L 558.40 713.53 L 608.24 487.71 L 614.54 432.72 L 531.61 426.41 Z" fill="#ed6263" fill-rule="nonzero" group-id="1,7" node-id="352" stroke="none" target-height="293.43997" target-width="108.42999" target-x="506.11" target-y="426.41"></path><path d="M 362.63 863.83 C 352.13 863.83 341.66 862.73 331.39 860.57 C 287.52 851.35 250.39 823.57 226.83 782.29 C 203.54 741.50 196.32 692.36 206.50 643.92 C 216.68 595.48 243.07 553.41 280.81 525.45 C 319.00 497.17 364.18 486.67 408.00 495.89 C 451.82 505.11 489.00 532.89 512.56 574.17 C 535.85 614.95 543.07 664.09 532.89 712.53 C 522.71 760.97 496.36 803.05 458.62 831.00 C 429.47 852.60 396.24 863.83 362.63 863.83 Z M 376.90 517.00 C 348.44 517.00 320.19 526.59 295.30 545.00 C 262.35 569.41 239.30 606.31 230.30 648.92 C 221.30 691.53 227.63 734.61 248.00 770.22 C 268.00 805.35 299.43 829.00 336.40 836.75 C 344.95 838.55 353.66 839.45 362.40 839.45 C 430.04 839.45 492.86 785.08 509.16 707.53 C 518.16 664.92 511.85 621.85 491.52 586.24 C 471.40 551.11 440.00 527.48 403.00 519.71 C 394.42 517.91 385.67 517.00 376.90 517.00 Z" fill="url(#linear-gradient-11)" fill-rule="nonzero" group-id="1,7" node-id="354" stroke="none" target-height="371.14883" target-width="335.31125" target-x="202.0394" target-y="492.68118"></path><path d="M 856.67 862.09 C 846.17 862.09 835.70 860.99 825.43 858.83 C 781.56 849.61 744.43 821.83 720.87 780.55 C 697.58 739.76 690.36 690.62 700.54 642.18 C 710.72 593.74 737.11 551.67 774.85 523.71 C 813.03 495.43 858.22 484.92 902.08 494.15 C 945.94 503.38 983.08 531.15 1006.64 572.43 C 1029.93 613.21 1037.15 662.35 1026.97 710.79 L 1026.97 710.79 C 1016.79 759.23 990.40 801.31 952.66 829.27 C 923.51 850.86 890.28 862.09 856.67 862.09 Z M 871.12 515.26 C 803.48 515.26 740.66 569.64 724.36 647.19 C 706.00 734.60 753.57 818.85 830.44 835.00 C 838.97 836.79 847.67 837.70 856.39 837.70 C 924.03 837.70 986.85 783.33 1003.15 705.78 L 1003.15 705.78 C 1012.15 663.17 1005.84 620.09 985.51 584.49 C 965.44 549.36 934.00 525.74 897.08 518.00 C 888.55 516.19 879.85 515.27 871.12 515.26 Z" fill="url(#linear-gradient-12)" fill-rule="nonzero" group-id="1,7" node-id="356" stroke="none" target-height="371.1532" target-width="335.35126" target-x="696.0794" target-y="490.93683"></path><path d="M 931.42 407.00 L 916.89 407.00 C 908.05 407.01 899.39 404.53 891.89 399.85 C 854.89 376.75 740.89 304.21 730.36 279.85 C 724.91 267.29 717.77 240.51 711.85 216.21 C 705.54 190.28 700.61 167.21 700.61 167.21 L 753.00 162.35 L 768.25 160.93 L 782.67 239.36 L 930.45 393.92 Z" fill="#ed6263" fill-rule="nonzero" group-id="1,7" node-id="358" stroke="none" target-height="246.07" target-width="230.81" target-x="700.61" target-y="160.93"></path><g node-id="440"><path d="M 753.00 162.35 L 753.00 206.00 L 711.88 216.28 C 705.57 190.35 700.64 167.28 700.64 167.28 Z" fill="#000000" fill-opacity="0.2" fill-rule="nonzero" group-id="1,7,8" node-id="362" stroke-linecap="butt" stroke-opacity="0.2" stroke-width="1" target-height="53.929993" target-width="52.359985" target-x="700.64" target-y="162.35"></path></g><path d="M 758.19 63.75 L 859.34 45.20 L 919.83 60.00 C 919.83 60.00 892.73 185.19 834.29 116.35 L 772.59 128.00 Z" fill="url(#linear-gradient-13)" fill-rule="nonzero" group-id="1,7" node-id="365" stroke="none" target-height="91.7679" target-width="161.64001" target-x="758.19" target-y="45.2"></path><path d="M 922.25 57.79 C 922.25 57.79 922.41 65.06 874.38 73.05 L 864.11 89.20 L 858.55 86.91 L 857.72 76.31 C 857.97 72.96 855.91 69.86 852.72 68.80 C 847.72 66.98 839.02 68.00 840.55 81.57 C 827.65 83.86 814.50 79.23 805.89 69.36 C 805.89 69.36 799.76 61.27 798.71 54.14 C 797.66 47.01 812.27 34.83 812.27 34.83 C 812.27 34.83 830.69 20.72 855.41 18.44 C 872.82 16.83 905.79 26.50 922.25 57.79 Z" fill="url(#linear-gradient-14)" fill-rule="nonzero" group-id="1,7" node-id="367" stroke="none" target-height="70.930954" target-width="123.548096" target-x="798.7019" target-y="18.269043"></path><path d="M 844.27 103.13 L 829.91 53.36 L 832.79 52.53 L 845.48 96.52 L 870.72 62.87 L 873.12 64.67 L 844.27 103.13 Z" fill="#005f57" fill-rule="nonzero" group-id="1,7" node-id="369" stroke="none" target-height="50.6" target-width="43.210022" target-x="829.91" target-y="52.53"></path><path d="M 844.61 129.44 C 843.40 125.44 840.70 114.04 843.86 99.07 L 846.79 99.68 C 844.67 109.22 844.91 119.13 847.48 128.55 C 847.72 129.30 847.33 130.11 846.59 130.39 L 846.59 130.39 C 846.20 130.54 845.77 130.53 845.39 130.35 C 845.02 130.17 844.73 129.84 844.61 129.44 Z" fill="#005f57" fill-rule="nonzero" group-id="1,7" node-id="371" stroke="none" target-height="31.422646" target-width="5.163147" target-x="842.3811" target-y="99.07"></path><path d="M 798.54 18.66 C 796.37 20.04 794.86 22.26 794.39 24.79 C 793.92 27.32 794.53 29.93 796.06 32.00 C 804.61 43.57 825.38 64.00 867.99 69.93 C 867.99 69.93 899.72 73.57 921.60 69.45 C 924.10 69.00 926.30 67.54 927.70 65.42 C 929.10 63.30 929.57 60.70 929.00 58.23 C 925.08 41.00 911.28 4.32 864.11 0.30 C 846.77 -1.18 823.63 2.52 798.54 18.66 Z" fill="url(#linear-gradient-15)" fill-rule="nonzero" group-id="1,7" node-id="373" stroke="none" target-height="71.398" target-width="134.9945" target-x="794.2388" target-y="0.00079101324"></path><path d="M 817.93 24.00 C 817.93 24.00 874.57 31.14 912.14 51.12 C 912.14 51.08 846.54 63.48 817.93 24.00 Z" fill="url(#linear-gradient-16)" fill-rule="nonzero" group-id="1,7" node-id="375" stroke="none" target-height="28.90356" target-width="94.21002" target-x="817.93" target-y="24"></path><path d="M 825.55 16.92 C 825.55 16.92 893.34 34.42 912.69 43.79 C 912.69 43.79 878.17 9.16 825.55 16.92 Z" fill="url(#linear-gradient-17)" fill-rule="nonzero" group-id="1,7" node-id="377" stroke="none" target-height="27.977316" target-width="87.140015" target-x="825.55" target-y="15.812685"></path><path d="M 849.83 99.37 C 849.83 102.36 847.41 104.78 844.42 104.78 C 841.43 104.78 839.01 102.36 839.01 99.37 C 839.01 96.38 841.43 93.96 844.42 93.96 C 847.41 93.96 849.83 96.38 849.83 99.37 Z" fill="url(#linear-gradient-18)" fill-rule="nonzero" group-id="1,7" node-id="379" stroke="none" target-height="10.82" target-width="10.820007" target-x="839.01" target-y="93.96"></path><path d="M 505.47 238.91 L 522.60 445.35 L 618.15 455.26 L 623.56 329.05 L 505.47 238.91 Z" fill="url(#linear-gradient-19)" fill-rule="nonzero" group-id="1,7" node-id="381" stroke="none" target-height="216.35" target-width="118.09" target-x="505.47" target-y="238.91"></path><path d="M 693.88 177.61 L 699.58 205.55 L 752.47 194.73 L 756.08 166.79 L 693.88 177.61 Z" fill="url(#linear-gradient-20)" fill-rule="nonzero" group-id="1,7" node-id="383" stroke="none" target-height="38.76001" target-width="62.200012" target-x="693.88" target-y="166.79"></path><path d="M 940.09 395.90 C 938.14 382.38 928.43 371.28 915.29 367.55 C 877.85 356.80 838.47 354.63 800.08 361.19 L 791.08 362.72 L 805.08 438.13 L 535.99 437.94 L 525.73 299.09 L 507.73 300.42 L 518.31 444.00 L 355.46 671.60 C 351.99 676.46 351.55 682.86 354.33 688.15 C 357.11 693.43 362.63 696.70 368.60 696.60 L 560.15 693.18 L 813.67 484.82 L 848.67 673.71 L 866.40 670.43 L 812.16 377.60 C 845.02 373.37 878.40 375.84 910.28 384.86 C 916.64 386.69 921.33 392.07 922.28 398.62 C 923.35 404.82 920.62 411.07 915.33 414.49 C 907.33 419.77 896.18 421.21 888.72 421.49 C 884.16 421.66 880.46 425.22 880.09 429.76 L 880.09 429.76 C 879.88 432.33 880.78 434.87 882.56 436.74 C 884.35 438.60 886.85 439.61 889.43 439.50 C 899.10 439.07 913.85 437.05 925.28 429.50 C 936.41 422.20 942.21 409.04 940.09 395.90 Z M 553.55 675.28 L 372.68 678.51 L 519.77 472.90 L 528.46 657.17 L 546.46 656.32 L 537.00 456.00 L 808.07 456.19 L 809.68 464.77 Z" fill="url(#linear-gradient-21)" fill-rule="nonzero" group-id="1,7" node-id="385" stroke="none" target-height="397.50998" target-width="587.9533" target-x="352.54974" target-y="299.09"></path><path d="M 478.94 304.71 L 563.05 307.16 C 572.05 307.42 574.22 294.70 565.63 291.97 L 485.42 266.54 C 481.73 265.37 477.71 265.86 474.41 267.88 C 471.10 269.89 468.83 273.24 468.18 277.06 L 466.13 289.06 C 465.47 292.88 466.51 296.80 468.97 299.81 C 471.42 302.81 475.06 304.60 478.94 304.71 Z" fill="url(#linear-gradient-22)" fill-rule="nonzero" group-id="1,7" node-id="387" stroke="none" target-height="41.188446" target-width="105.098816" target-x="465.9508" target-y="265.97156"></path><path d="M 544.93 762.68 L 536.02 673.50" fill="#0a0e1e" fill-rule="nonzero" group-id="1,7" node-id="389" stroke="none" target-height="89.17999" target-width="8.909973" target-x="536.02" target-y="673.5"></path><path d="M 540.55 760.10 L 532.00 674.89 L 540.00 674.10 L 548.51 759.30 C 548.62 760.36 548.30 761.41 547.63 762.23 C 546.96 763.05 545.99 763.57 544.93 763.68 L 544.93 763.68 C 543.87 763.79 542.82 763.47 542.00 762.80 C 541.18 762.13 540.66 761.16 540.55 760.10 Z" fill="#0a0e1e" fill-rule="nonzero" group-id="1,7" node-id="391" stroke="none" target-height="89.58002" target-width="16.51001" target-x="532" target-y="674.1"></path><path d="M 355.92 654.15 L 538.47 636.36" fill="#ffffff" fill-rule="nonzero" group-id="1,7" node-id="393" stroke="none" target-height="17.79004" target-width="182.54996" target-x="355.92" target-y="636.36"></path><path d="M 355.68 651.65 L 538.24 633.88 L 538.72 638.86 L 356.17 656.63 Z" fill="#000000" fill-rule="nonzero" group-id="1,7" node-id="395" stroke-linecap="butt" stroke-width="1" target-height="22.74762" target-width="183.0415" target-x="355.6833" target-y="633.8821"></path><path d="M 360.33 700.27 L 533.86 718.04" fill="#ffffff" fill-rule="nonzero" group-id="1,7" node-id="397" stroke="none" target-height="17.769958" target-width="173.53" target-x="360.33" target-y="700.27"></path><path d="M 360.08 702.77 L 360.59 697.79 L 534.12 715.57 L 533.61 720.55 Z" fill="#000000" fill-rule="nonzero" group-id="1,7" node-id="399" stroke-linecap="butt" stroke-width="1" target-height="22.753723" target-width="174.0412" target-x="360.07672" target-y="697.7913"></path><path d="M 542.40 633.74 L 546.63 634.55 L 550.61 635.75 L 554.38 637.33 L 557.94 639.29 L 561.30 641.61 L 564.38 644.22 L 567.20 647.12 L 569.76 650.33 L 572.00 653.76 L 573.90 657.39 L 575.48 661.22 L 576.72 665.29 L 577.57 669.42 L 578.02 673.67 L 578.06 678.05 L 577.69 682.59 L 576.86 687.06 L 575.66 691.27 L 574.11 695.25 L 572.20 699.02 L 569.93 702.61 L 567.40 705.90 L 564.61 708.89 L 561.54 711.61 L 558.22 714.03 L 554.74 716.09 L 551.08 717.79 L 547.23 719.14 L 543.27 720.10 L 539.23 720.63 L 535.07 720.74 L 530.77 720.40 L 526.54 719.59 L 522.56 718.40 L 518.80 716.82 L 515.23 714.85 L 511.87 712.53 L 508.79 709.92 L 505.97 707.02 L 503.41 703.81 L 501.17 700.38 L 499.27 696.76 L 497.69 692.92 L 496.45 688.86 L 495.60 684.72 L 495.15 680.47 L 495.11 676.09 L 495.48 671.56 L 496.32 667.08 L 497.51 662.87 L 499.07 658.89 L 500.98 655.13 L 503.25 651.53 L 505.77 648.25 L 508.57 645.25 L 511.63 642.53 L 514.95 640.11 L 518.43 638.06 L 522.09 636.35 L 525.94 635.00 L 529.90 634.04 L 533.95 633.51 L 538.10 633.41 L 542.40 633.74 Z" fill="url(#linear-gradient-23)" fill-rule="nonzero" group-id="1,7" node-id="401" stroke-linecap="butt" stroke-width="1" target-height="87.32739" target-width="82.954895" target-x="495.10864" target-y="633.40814"></path><path d="M 943.49 401.27 C 943.49 401.27 949.00 405.00 939.00 412.00 L 930.00 401.00 C 930.00 401.00 905.72 412.89 896.71 392.16 L 784.00 308.32 C 784.00 308.32 761.00 294.00 756.06 262.32 L 747.62 216.20 L 741.56 183.00 L 807.46 166.78 L 811.83 195.35 L 819.18 243.35 L 917.44 369.56 C 917.44 369.56 926.00 368.94 935.44 374.76 C 938.75 376.66 942.17 379.28 943.95 381.94 C 945.95 384.94 945.95 389.94 943.95 389.94 C 945.87 391.33 946.99 393.57 946.95 395.94 C 947.00 399.00 943.91 401.23 943.49 401.27 Z" fill="url(#linear-gradient-24)" fill-rule="nonzero" group-id="1,7" node-id="403" stroke="none" target-height="245.22" target-width="205.39001" target-x="741.56" target-y="166.78"></path><path d="M 811.83 195.36 L 747.64 216.22 L 741.56 183.01 L 807.46 166.79 L 811.83 195.36 Z" fill="#000000" fill-opacity="0.2" fill-rule="nonzero" group-id="1,7,9" node-id="407" stroke-linecap="butt" stroke-opacity="0.2" stroke-width="1" target-height="49.430008" target-width="70.27002" target-x="741.56" target-y="166.79"></path><path d="M 751.30 424.71 C 746.50 437.33 737.72 448.06 726.30 455.26 L 561.82 558.26 L 516.00 520.69 L 666.00 402.07 L 644.00 382.74 L 608.00 351.00 L 686.66 282.59 C 693.27 288.99 699.45 295.80 705.18 303.00 C 723.75 325.91 738.96 351.36 750.32 378.58 C 756.51 393.27 756.86 409.77 751.30 424.71 Z" fill="url(#linear-gradient-25)" fill-rule="nonzero" group-id="1,7" node-id="410" stroke="none" target-height="275.67" target-width="239.21533" target-x="516" target-y="282.59"></path><path d="M 365.67 650.38 L 369.06 651.09 L 372.18 652.21 L 375.09 653.75 L 377.77 655.66 L 380.15 657.89 L 382.25 660.44 L 384.02 663.24 L 385.42 666.25 L 386.47 669.50 L 387.10 672.86 L 387.30 676.34 L 387.06 679.99 L 386.33 683.57 L 385.22 686.88 L 383.73 689.95 L 381.86 692.81 L 379.71 695.35 L 377.27 697.58 L 374.57 699.49 L 371.68 701.01 L 368.60 702.15 L 365.39 702.86 L 362.08 703.12 L 358.63 702.91 L 355.24 702.20 L 352.11 701.08 L 349.21 699.55 L 346.53 697.63 L 344.15 695.41 L 342.05 692.86 L 340.28 690.06 L 338.88 687.05 L 337.83 683.79 L 337.19 680.44 L 336.99 676.95 L 337.24 673.31 L 337.96 669.73 L 339.07 666.42 L 340.57 663.35 L 342.44 660.48 L 344.59 657.95 L 347.03 655.71 L 349.73 653.81 L 352.61 652.29 L 355.70 651.15 L 358.91 650.43 L 362.22 650.17 L 365.67 650.38 Z" fill="url(#linear-gradient-26)" fill-rule="nonzero" group-id="1,7" node-id="412" stroke-linecap="butt" stroke-width="1" target-height="52.947083" target-width="50.307373" target-x="336.99466" target-y="650.17395"></path><path d="M 610.49 217.72 L 738.49 179.86 L 743.00 199.69 L 813.31 186.17 L 802.04 124.22 C 802.04 124.22 786.73 110.00 785.83 55.91 C 785.83 55.91 725.00 13.00 618.15 55.91 C 618.15 55.91 538.00 91.00 505.47 159.58 Z" fill="url(#linear-gradient-27)" fill-rule="nonzero" group-id="1,7" node-id="414" stroke="none" target-height="180.86761" target-width="307.84" target-x="505.47" target-y="36.852386"></path><path d="M 859.39 651.19 L 862.79 651.99 L 865.83 653.33 L 868.57 655.20 L 870.96 657.52 L 872.89 660.20 L 874.40 663.26 L 875.39 666.53 L 875.80 669.98 L 875.64 673.67 L 874.82 677.28 L 873.51 680.50 L 871.70 683.39 L 869.44 685.95 L 866.87 688.02 L 863.96 689.63 L 860.82 690.72 L 857.53 691.20 L 854.04 691.08 L 850.64 690.28 L 847.60 688.94 L 844.86 687.07 L 842.48 684.75 L 840.54 682.07 L 839.03 679.01 L 838.05 675.74 L 837.63 672.29 L 837.80 668.60 L 838.61 664.99 L 839.92 661.77 L 841.73 658.88 L 843.99 656.32 L 846.57 654.25 L 849.48 652.64 L 852.61 651.55 L 855.90 651.07 L 859.39 651.19 Z" fill="url(#linear-gradient-28)" fill-rule="nonzero" group-id="1,7" node-id="416" stroke-linecap="butt" stroke-width="1" target-height="40.132202" target-width="38.17395" target-x="837.6286" target-y="651.0689"></path><path d="M 536.57 677.48 L 524.40 588.68" fill="#0a0e1e" fill-rule="nonzero" group-id="1,7" node-id="418" stroke="none" target-height="88.79999" target-width="12.169983" target-x="524.4" target-y="588.68"></path><path d="M 532.06 674.06 L 520.43 589.22 L 528.36 588.14 L 540.00 673.00 C 540.15 674.05 539.87 675.12 539.22 675.96 C 538.58 676.81 537.63 677.37 536.58 677.51 L 536.58 677.51 C 535.52 677.66 534.45 677.38 533.60 676.73 C 532.75 676.08 532.20 675.12 532.06 674.06 Z" fill="#0a0e1e" fill-rule="nonzero" group-id="1,7" node-id="420" stroke="none" target-height="89.369995" target-width="19.570007" target-x="520.43" target-y="588.14"></path><path d="M 705.18 303.00 C 703.93 321.00 694.69 357.37 644.00 382.71 L 608.00 351.00 L 686.66 282.59 C 693.27 288.99 699.45 295.80 705.18 303.00 Z" fill="#000000" fill-opacity="0.2" fill-rule="nonzero" group-id="1,7,10" node-id="424" stroke-linecap="butt" stroke-opacity="0.2" stroke-width="1" target-height="100.119995" target-width="97.17999" target-x="608" target-y="282.59"></path><path d="M 579.39 192.00 C 579.39 192.00 660.52 245.19 700.19 294.77 C 700.19 294.77 698.38 338.04 626.26 369.59 C 626.26 369.59 411.94 270.76 507.39 154.30 Z" fill="url(#linear-gradient-29)" fill-rule="nonzero" group-id="1,7" node-id="427" stroke="none" target-height="215.29" target-width="217.29272" target-x="482.89728" target-y="154.3"></path><path d="M 521.81 513.51 L 481.00 552.50 L 561.56 608.06 L 548.60 572.87 L 570.89 554.72 L 521.81 513.51 Z" fill="url(#linear-gradient-30)" fill-rule="nonzero" group-id="1,7" node-id="429" stroke="none" target-height="94.54999" target-width="89.890015" target-x="481" target-y="513.51"></path><path d="M 506.06 575.14 L 506.06 575.14 L 507.15 574.01 L 508.38 573.25 L 509.79 572.83 L 511.26 572.78 L 512.67 573.10 L 514.07 573.83 L 540.98 593.17 L 542.12 594.26 L 542.88 595.49 L 543.30 596.91 L 543.35 598.38 L 543.02 599.79 L 542.29 601.18 L 542.29 601.18 L 541.21 602.32 L 539.97 603.07 L 538.56 603.49 L 537.09 603.54 L 535.68 603.22 L 534.29 602.49 L 507.37 583.15 L 506.24 582.06 L 505.48 580.83 L 505.06 579.42 L 505.00 577.94 L 505.33 576.54 L 506.06 575.14 Z" fill="url(#linear-gradient-31)" fill-rule="nonzero" group-id="1,7" node-id="431" stroke-linecap="butt" stroke-width="1" target-height="30.76831" target-width="38.346283" target-x="505.0032" target-y="572.7765"></path></g></g></svg>